<svg width="31" height="31" fill="none" xmlns="http://www.w3.org/2000/svg"><path opacity=".1" d="M23.3508 26.7727c0 .7783-3.7853 1.4091-8.4546 1.4091s-8.45455-.6308-8.45455-1.4091c0-.7782 3.78525-1.4091 8.45455-1.4091s8.4546.6309 8.4546 1.4091z" fill="#353535"/><path fill-rule="evenodd" clip-rule="evenodd" d="M15.0432 19.1951c-.2484-.016-.7052-.0456-1.1753-.1987-.9812-.3195-1.5176-1.3739-1.1981-2.3551.3188-.9791 1.3694-1.5152 2.3487-1.2002.0015-.0002.0598.0116.2791.0259.0213.0013.0449.0028.0706.0043.2222.0135.6028.0366.9916.1182 1.0593.2223 2.0576.8303 2.8557 2.1234.4416.7154.752 1.6141.9445 2.3142.1012.3679.1822.7271.2374 1.0425.0461.2637.1028.6502.0814 1.0014-.063 1.03-.949 1.8139-1.979 1.7509-1.0056-.0614-1.7767-.9075-1.754-1.9061-.0015-.0114-.007-.0742-.0294-.2027-.0325-.1856-.0862-.4285-.1595-.6954-.1566-.5695-.3544-1.0717-.5213-1.3422-.1608-.2605-.2736-.3507-.3104-.3768-.0299-.0212-.0593-.0366-.1328-.052-.1098-.0231-.2199-.0302-.5074-.0488-.0095-.0007-.0193-.0013-.0292-.0019l-.0126-.0009z" fill="#F16A6A"/><path fill-rule="evenodd" clip-rule="evenodd" d="M25.207 9.74197L15.4646 15.935c-.2105.1338-.2981.3969-.21.6302l3.7707 9.9807c-5.0191 1.5095-10.574-.6936-13.12575-5.5143-2.90036-5.4793-.82269-12.26548 4.64055-15.15735 5.1828-2.74336 11.5505-.99664 14.6669 3.86772z" fill="#FFDA56"/><path fill-rule="evenodd" clip-rule="evenodd" d="M15.8362 9.70396c-.7056-.42339-1.6226-.11789-1.9333.64414l-.3429.8408c-.1152.2826-.4377.4183-.7203.303-.2827-.1152-.4183-.4377-.3031-.7203l.3428-.84087c.5666-1.38949 2.2387-1.94657 3.5255-1.17451l.7497.44984c.2617.15704.3465.4965.1895.75821-.157.26173-.4965.34653-.7582.18953l-.7497-.44984z" fill="#483B0C"/></svg>