<?xml version="1.0" standalone="no"?>
<!DOCTYPE svg PUBLIC "-//W3C//DTD SVG 20010904//EN"
 "http://www.w3.org/TR/2001/REC-SVG-20010904/DTD/svg10.dtd">
<svg version="1.0" xmlns="http://www.w3.org/2000/svg"
 width="2400.000000pt" height="1800.000000pt" viewBox="0 0 2400.000000 1800.000000"
 preserveAspectRatio="xMidYMid meet">

<g transform="translate(0.000000,1800.000000) scale(0.100000,-0.100000)"
fill="#000000" stroke="none">
<path d="M12010 16453 c-1282 -47 -2513 -418 -3602 -1085 -1853 -1133 -3100
-3016 -3427 -5173 -92 -608 -107 -1227 -45 -1840 197 -1954 1190 -3773 2731
-5003 470 -375 1017 -709 1548 -947 675 -303 1367 -499 2095 -595 548 -72
1172 -79 1721 -20 1400 152 2712 692 3821 1576 314 250 693 614 957 919 193
223 251 335 259 498 4 90 2 101 -22 152 -35 70 -100 127 -201 175 -44 21 -215
86 -380 143 -165 58 -642 227 -1060 377 -911 326 -1330 473 -1444 506 -249 72
-487 72 -702 -1 -41 -14 -128 -56 -194 -94 -471 -270 -912 -417 -1425 -476
-739 -83 -1511 79 -2165 454 -495 285 -935 710 -1238 1195 -694 1112 -725
2507 -81 3643 523 922 1455 1578 2489 1752 230 39 326 46 605 46 478 0 822
-62 1259 -224 655 -244 1247 -703 1655 -1284 91 -131 197 -307 191 -317 -3 -4
-181 -117 -396 -251 -303 -188 -406 -258 -453 -305 -107 -107 -166 -231 -188
-394 -34 -261 92 -553 281 -650 52 -26 587 -216 1926 -685 887 -310 1236 -432
2260 -787 265 -91 336 -103 460 -74 191 45 373 196 439 364 24 62 586 4575
586 4707 0 309 -320 576 -690 577 -111 0 -208 -20 -288 -60 -31 -16 -203 -120
-381 -231 -178 -111 -327 -199 -331 -194 -3 4 -35 55 -70 113 -98 162 -253
389 -381 560 -1187 1578 -2929 2598 -4899 2869 -382 53 -858 78 -1220 64z
m1820 -998 c140 -140 253 -255 250 -255 -3 0 -120 115 -260 255 -140 140 -253
255 -250 255 3 0 120 -115 260 -255z m875 -195 c-16 -16 -31 -28 -33 -25 -5 5
48 55 57 55 3 0 -8 -13 -24 -30z m-1725 0 c0 -5 -5 -10 -11 -10 -5 0 -8 -3 -6
-7 3 -5 2 -16 -2 -26 -6 -15 -11 -13 -41 18 l-34 35 47 0 c26 0 47 -4 47 -10z
m30 -25 c6 -8 9 -19 5 -24 -3 -6 0 -9 7 -6 20 8 55 -44 56 -82 0 -26 -3 -33
-18 -33 -10 0 -21 6 -23 13 -4 9 -6 9 -6 -1 -1 -19 28 -27 127 -31 13 -1 45
-22 72 -47 49 -45 50 -48 50 -104 0 -56 -1 -58 -54 -109 -47 -44 -60 -51 -95
-51 -34 0 -46 7 -95 55 l-56 56 0 77 0 76 50 -49 c45 -44 51 -54 48 -85 l-3
-35 57 -2 56 -2 4 64 3 65 -54 0 c-52 0 -56 2 -106 53 -50 51 -52 55 -57 120
-3 37 -2 67 3 67 5 0 6 7 3 15 -8 19 10 19 26 0z m-2682 -172 c2 -7 -1 -13 -8
-13 -6 0 -8 5 -5 10 3 6 1 10 -4 10 -17 0 -13 -60 4 -66 8 -4 15 -10 15 -15 0
-4 -6 -6 -14 -3 -9 4 -16 -3 -18 -18 -2 -13 -5 8 -6 45 -2 59 1 68 15 65 9 -2
18 -9 21 -15z m3132 -28 l0 -45 44 6 c38 6 45 3 60 -17 28 -40 17 -128 -18
-151 -17 -12 -61 -9 -74 4 -10 10 -15 10 -21 -1 -22 -34 -31 4 -31 125 0 117
1 124 20 124 17 0 20 -7 20 -45z m501 28 c0 -10 1 -44 1 -75 0 -32 3 -58 8
-58 5 0 18 16 30 35 13 20 30 35 41 35 25 0 24 -8 -6 -45 l-24 -29 30 -53 c29
-50 29 -53 10 -53 -13 0 -29 15 -47 45 -28 49 -44 57 -42 23 2 -50 -3 -68 -17
-68 -13 0 -15 21 -15 130 0 109 2 130 15 130 8 0 15 -8 16 -17z m1129 -113 c0
-105 -3 -130 -14 -130 -8 0 -16 5 -18 11 -3 9 -9 9 -25 0 -12 -6 -33 -11 -47
-11 -49 0 -75 102 -40 155 17 27 51 32 85 15 18 -10 19 -7 19 40 0 43 3 50 20
50 19 0 20 -7 20 -130z m-1362 37 c8 -6 12 -37 12 -88 0 -77 -5 -90 -27 -68
-8 8 -13 8 -17 0 -10 -16 -65 -14 -82 3 -34 35 -6 79 59 91 40 8 49 28 18 44
-10 6 -20 9 -22 7 -2 -2 -16 -6 -31 -10 -42 -10 -37 21 5 32 34 9 64 5 85 -11z
m169 -4 c8 -21 0 -24 -35 -13 -20 5 -30 5 -27 -1 4 -5 1 -9 -4 -9 -6 0 -11
-21 -11 -50 0 -45 2 -50 25 -56 15 -4 32 -1 41 7 14 11 15 10 12 -11 -2 -21
-9 -25 -44 -28 -49 -4 -64 10 -71 67 -8 56 3 88 33 104 30 16 73 11 81 -10z
m1307 17 c36 -13 34 -33 -2 -25 -20 4 -33 1 -41 -9 -11 -13 -7 -19 23 -37 81
-47 64 -109 -28 -109 -29 0 -36 4 -36 20 0 17 3 18 25 8 19 -8 28 -8 40 2 23
19 19 28 -26 50 -36 19 -40 25 -37 53 2 22 11 35 28 44 30 15 24 15 54 3z
m-4934 -9 c3 -1 -2 -6 -10 -11 -20 -13 -43 -13 -35 0 9 14 -8 12 -25 -2 -12
-11 -12 -10 -1 4 10 14 38 18 71 9z m124 -9 c-6 -4 -14 -16 -18 -27 -6 -14
-10 -16 -13 -7 -5 14 27 56 36 47 3 -4 1 -9 -5 -13z m63 4 c0 -8 -8 -11 -20
-8 -14 4 -16 7 -5 13 19 12 25 11 25 -5z m53 4 c13 -8 13 -10 -2 -10 -9 0 -20
5 -23 10 -8 13 5 13 25 0z m130 -1 c0 -5 -4 -7 -10 -4 -5 3 -10 4 -10 1 0 -2
-3 -12 -7 -22 -4 -12 -3 -15 5 -10 15 9 17 16 -22 -99 -22 -67 -39 -101 -50
-103 -19 -4 -21 11 -5 40 8 15 8 26 0 42 -11 22 -41 104 -41 114 0 3 7 -3 15
-14 11 -14 15 -16 15 -4 0 12 3 11 11 -2 5 -10 9 -24 8 -30 -7 -53 15 -49 30
5 20 71 33 97 47 97 8 0 14 -5 14 -11z m3600 -4 c0 -8 -7 -15 -15 -15 -9 0
-12 -6 -9 -15 4 -8 -1 -26 -10 -40 -12 -19 -25 -25 -51 -25 -51 0 -46 -26 7
-34 23 -4 48 -12 55 -18 17 -14 17 -53 -2 -68 -21 -17 -89 -24 -113 -11 -18
10 -21 19 -18 66 1 30 5 58 8 61 3 3 4 23 1 44 -8 56 9 69 85 70 49 0 62 -3
62 -15z m53 3 c4 -10 7 -10 18 0 21 19 49 15 49 -9 0 -11 -4 -17 -10 -14 -5 3
-19 1 -30 -5 -17 -9 -20 -21 -20 -75 0 -58 -2 -65 -20 -65 -19 0 -20 7 -20 90
0 71 3 90 14 90 8 0 16 -6 19 -12z m221 -10 c23 -33 20 -100 -5 -132 -18 -23
-27 -27 -68 -24 -42 3 -48 6 -64 40 -15 31 -16 44 -7 77 13 48 31 60 87 61 32
0 45 -5 57 -22z m86 -34 c0 -85 22 -113 62 -77 13 12 18 31 18 75 0 45 3 58
15 58 12 0 15 -14 17 -62 2 -117 2 -118 -17 -118 -8 0 -15 7 -15 17 0 15 -1
15 -18 0 -23 -21 -65 -22 -82 -2 -7 8 -13 47 -14 90 -1 65 1 75 17 75 14 0 17
-9 17 -56z m182 45 c3 -9 9 -9 25 0 33 17 71 13 83 -8 5 -11 10 -51 10 -90 0
-64 -2 -71 -20 -71 -18 0 -20 7 -20 70 0 56 -3 72 -16 77 -34 13 -49 -11 -52
-81 -3 -58 -5 -66 -22 -66 -18 0 -20 7 -20 90 0 71 3 90 14 90 8 0 16 -5 18
-11z m512 -29 c9 -22 16 -47 16 -55 0 -37 20 -19 37 32 15 43 25 59 40 61 20
3 18 -4 -21 -120 -34 -103 -45 -124 -63 -126 -20 -3 -21 -1 -11 31 9 30 6 47
-21 121 -17 48 -31 89 -31 92 0 2 9 4 19 4 13 0 24 -13 35 -40z m-4992 -42
c-7 -7 -12 -8 -12 -2 0 14 12 26 19 19 2 -3 -1 -11 -7 -17z m-125 -10 c-3 -8
-6 -5 -6 6 -1 11 2 17 5 13 3 -3 4 -12 1 -19z m686 7 c22 -9 23 -67 2 -85 -18
-15 -18 -10 -5 24 5 14 7 33 4 41 -7 16 -54 21 -54 6 0 -5 -3 -16 -6 -24 -3
-8 5 -24 17 -36 16 -15 19 -21 8 -21 -38 0 -53 58 -23 91 16 17 25 18 57 4z
m114 4 c8 -8 17 -8 31 0 11 6 23 11 25 11 12 0 23 -58 16 -85 l-7 -30 -1 35
c-2 44 -14 65 -35 57 -11 -4 -16 -19 -16 -47 0 -25 -4 -39 -10 -35 -5 3 -10
22 -10 41 0 21 -6 37 -15 40 -8 4 -12 10 -9 15 7 12 18 11 31 -2z m4550 -5 c2
-6 -7 -10 -19 -10 -19 1 -24 -5 -26 -31 -3 -30 -1 -33 22 -33 14 0 26 -4 26
-10 0 -14 -43 -13 -58 2 -17 17 -15 64 4 83 18 17 45 17 51 -1z m-5073 -10
c20 -20 20 -51 1 -70 -22 -22 -89 -15 -93 10 -3 11 0 16 7 11 6 -3 9 -11 6
-16 -4 -5 1 -9 10 -9 9 0 13 4 10 10 -4 7 3 7 20 0 15 -6 24 -6 20 -1 -3 6 3
14 12 20 10 6 13 11 6 11 -7 0 -10 7 -6 17 5 12 3 14 -7 8 -8 -5 -11 -4 -6 3
3 5 0 13 -6 15 -9 4 -9 6 -1 6 6 1 19 -6 27 -15z m293 9 c-26 -4 -28 -8 -25
-41 3 -33 6 -37 28 -34 19 2 22 0 10 -8 -24 -16 -40 -12 -52 15 -17 38 3 75
39 74 l28 -2 -28 -4z m181 -32 c2 -18 0 -40 -4 -49 -6 -13 -9 -10 -14 13 -3
17 -3 38 2 47 4 9 4 18 -2 21 -6 3 -5 4 2 3 7 -1 14 -17 16 -35z m4654 27 c-7
-7 -12 -25 -12 -40 0 -23 4 -28 25 -28 20 0 25 5 25 25 0 14 5 25 11 25 16 0
6 -52 -12 -63 -23 -15 -66 -1 -72 24 -8 30 9 69 30 69 13 0 14 -3 5 -12z
m-5555 -45 c-3 -10 -5 -4 -5 12 0 17 2 24 5 18 2 -7 2 -21 0 -30z m264 4 c-10
-9 -11 -8 -5 6 3 10 9 15 12 12 3 -3 0 -11 -7 -18z m39 -28 c0 -10 -7 -19 -15
-19 -15 0 -21 31 -9 43 11 10 24 -3 24 -24z m-193 -4 c-4 -8 -12 -15 -19 -14
-10 0 -10 2 0 6 6 2 12 12 12 21 0 8 3 13 6 9 4 -3 4 -13 1 -22z m105 5 l22
-20 -24 0 c-13 0 -20 3 -17 7 4 3 2 12 -4 20 -17 20 -1 16 23 -7z m5446 -3 c2
-10 -3 -17 -12 -17 -10 0 -16 9 -16 21 0 24 23 21 28 -4z m-5013 4 c3 -5 1
-12 -5 -16 -5 -3 -10 1 -10 9 0 18 6 21 15 7z m4765 -6 c0 -8 -6 -15 -13 -15
-8 0 -14 7 -14 15 0 8 6 15 14 15 7 0 13 -7 13 -15z m-5413 -1 c-3 -3 -12 -4
-19 -1 -8 3 -5 6 6 6 11 1 17 -2 13 -5z m4033 -219 c-13 -14 -26 -23 -28 -20
-5 5 36 45 46 45 3 0 -5 -11 -18 -25z m2380 -1778 c0 -6 -1776 1771 -1790
1791 -2 4 400 -396 893 -888 493 -492 897 -898 897 -903z m-2515 1645 c-55
-54 -100 -97 -100 -95 0 7 191 199 195 196 2 -2 -41 -48 -95 -101z m-115 -115
c0 -1 -221 -223 -492 -492 -271 -270 -490 -487 -488 -483 7 10 973 978 977
978 2 0 3 -1 3 -3z m-3625 -27 c10 -11 16 -20 13 -20 -3 0 -13 9 -23 20 -10
11 -16 20 -13 20 3 0 13 -9 23 -20z m480 -480 c3 -5 1 -10 -4 -10 -6 0 -11 5
-11 10 0 6 2 10 4 10 3 0 8 -4 11 -10z m6845 -553 c0 -1 -109 -110 -242 -242
-133 -132 -237 -233 -231 -225 17 23 462 470 468 470 3 0 5 -1 5 -3z m-2105
-467 c41 -42 49 -56 51 -92 2 -24 3 -45 4 -48 0 -3 24 -6 52 -8 48 -2 57 -7
100 -49 47 -46 48 -48 47 -108 -1 -60 -1 -60 -55 -107 -45 -40 -61 -48 -94
-48 -21 0 -41 4 -44 9 -4 5 3 7 14 4 23 -6 24 -4 10 31 -12 34 -40 34 -40 1 0
-22 -4 -20 -45 24 -45 48 -45 48 -45 121 l0 73 49 -44 c45 -41 49 -48 50 -93
1 -42 3 -47 19 -40 9 4 34 6 55 5 l37 -1 0 55 c0 45 3 55 18 56 36 1 -22 18
-66 18 -48 1 -86 17 -77 32 4 5 3 8 -2 7 -5 -2 -25 14 -46 34 -31 31 -37 44
-37 80 0 37 -6 48 -47 90 l-47 48 45 0 c40 0 49 -5 94 -50z m435 -187 c0 -32
4 -44 13 -40 49 18 57 18 82 -7 30 -30 35 -102 9 -141 -18 -27 -70 -35 -92
-13 -9 9 -12 9 -12 0 0 -7 -9 -12 -20 -12 -19 0 -20 7 -20 129 0 94 3 131 13
134 21 8 27 -3 27 -50z m506 -24 c-1 -39 1 -72 5 -75 4 -2 17 12 29 31 13 20
30 35 41 35 25 0 24 -5 -6 -44 l-24 -32 29 -44 c35 -53 36 -60 10 -60 -12 0
-29 16 -46 45 -14 25 -30 45 -35 45 -5 0 -8 -19 -7 -42 2 -34 -1 -43 -14 -46
-20 -4 -19 -5 -22 143 -2 92 7 127 28 119 11 -4 14 -22 12 -75z m-8417 50
c-16 -10 -23 -4 -14 10 3 6 11 8 17 5 6 -4 5 -9 -3 -15z m9541 -109 c0 -125
-1 -130 -21 -130 -11 0 -17 5 -14 10 3 6 2 10 -4 10 -5 0 -13 -4 -16 -10 -12
-20 -73 -11 -89 12 -18 25 -21 84 -6 123 11 29 57 52 74 35 23 -23 36 -10 36
35 0 38 3 45 20 45 19 0 20 -7 20 -130z m-1363 38 c29 -23 27 -168 -3 -168 -8
0 -14 5 -14 12 0 9 -3 9 -12 0 -7 -7 -27 -12 -45 -12 -26 0 -36 6 -45 25 -18
39 4 71 54 78 47 6 51 9 42 32 -6 14 -15 16 -51 12 -37 -4 -44 -2 -41 12 5 27
84 33 115 9z m151 16 c12 -4 22 -14 22 -24 0 -14 -8 -17 -37 -16 l-38 1 0 -49
c0 -58 21 -80 56 -58 19 12 20 11 17 -10 -2 -19 -10 -23 -45 -26 -36 -3 -44 1
-59 23 -19 29 -21 94 -3 126 5 11 20 24 32 29 28 11 27 11 55 4z m362 -20 c0
-8 -6 -14 -14 -14 -9 0 -12 -7 -9 -19 8 -30 -38 -71 -71 -65 -19 3 -26 0 -26
-11 0 -10 10 -15 30 -15 16 0 41 -5 55 -12 33 -15 35 -60 3 -82 -27 -19 -99
-21 -116 -4 -15 15 -16 54 -2 63 6 4 7 13 1 24 -5 9 -6 23 -2 30 5 7 6 33 3
57 -4 41 -3 45 26 57 39 16 122 10 122 -9z m120 -5 c0 -13 -5 -17 -16 -12 -27
10 -44 -25 -44 -89 0 -51 -2 -58 -20 -58 -19 0 -20 7 -20 90 0 71 3 90 14 90
8 0 16 -6 18 -12 3 -9 9 -8 22 4 20 20 46 13 46 -13z m153 -1 c25 -29 23 -108
-4 -137 -17 -18 -30 -21 -67 -19 -42 3 -49 7 -66 39 -18 33 -18 41 -7 79 9 31
20 45 44 55 38 17 76 10 100 -17z m365 16 c20 -13 22 -24 22 -95 0 -72 -2 -79
-20 -79 -18 0 -20 7 -20 70 0 56 -3 72 -16 77 -34 13 -49 -11 -52 -81 -3 -58
-5 -66 -22 -66 -18 0 -20 7 -20 90 0 72 3 90 14 90 8 0 17 -4 21 -9 3 -6 17
-4 33 5 34 17 33 17 60 -2z m333 6 c29 -16 23 -33 -9 -25 -42 9 -61 -17 -30
-39 12 -9 27 -16 32 -16 11 0 35 -31 36 -47 0 -27 -39 -53 -80 -53 -33 0 -40
3 -40 20 0 17 3 18 26 10 19 -7 31 -7 40 1 22 18 17 27 -23 46 -31 15 -39 24
-41 50 -5 48 44 77 89 53z m-9548 -7 c-7 -2 -21 -2 -30 0 -10 3 -4 5 12 5 17
0 24 -2 18 -5z m32 -3 c3 -5 1 -10 -4 -10 -6 0 -11 5 -11 10 0 6 2 10 4 10 3
0 8 -4 11 -10z m76 -37 c40 -97 35 -92 52 -50 15 34 37 43 37 16 0 -6 -5 -7
-12 -3 -8 5 -9 2 -5 -9 14 -36 -49 -174 -70 -153 -4 4 -1 11 7 16 8 6 11 10 5
10 -5 0 -10 18 -10 39 0 22 3 37 8 34 4 -2 7 6 7 19 0 18 -2 20 -10 8 -5 -8
-10 -12 -10 -7 0 4 1 9 3 10 1 2 -4 11 -11 20 -8 9 -10 22 -6 28 4 8 3 9 -4 5
-7 -4 -12 -1 -13 6 0 7 -2 23 -5 36 -7 39 16 23 37 -25z m109 37 c0 -5 -4 -10
-10 -10 -5 0 -9 -3 -9 -7 3 -20 -2 -30 -16 -30 -18 0 -18 -1 -5 31 9 25 40 37
40 16z m8722 -27 c0 -21 1 -44 0 -52 -1 -26 17 -61 32 -61 25 0 40 32 41 89 1
44 5 57 18 59 19 4 18 7 21 -100 2 -68 0 -78 -15 -78 -10 0 -19 6 -22 13 -4
10 -7 10 -18 0 -7 -7 -25 -13 -41 -13 -42 0 -58 33 -55 113 2 56 5 67 19 67
14 0 18 -9 20 -37z m698 -21 c9 -29 20 -54 25 -55 5 -1 16 24 24 56 11 43 19
57 33 57 24 0 23 -8 -19 -137 -30 -91 -41 -113 -56 -113 -16 0 -18 5 -13 33 4
24 -3 59 -24 120 -16 48 -30 90 -30 93 0 3 10 4 22 2 17 -2 26 -15 38 -56z
m-9660 34 c0 -2 -7 -6 -15 -10 -8 -3 -15 -1 -15 4 0 6 7 10 15 10 8 0 15 -2
15 -4z m-73 -24 c0 -10 -6 -19 -13 -19 -9 0 -9 5 -1 19 7 10 13 18 14 18 1 0
1 -8 0 -18z m75 -35 c9 -3 19 -1 22 6 2 7 5 4 5 -5 1 -11 6 -15 16 -12 9 4 16
-3 21 -20 8 -34 -19 -67 -55 -65 -24 2 -24 2 -3 6 12 2 22 9 22 14 0 5 7 9 15
9 24 0 6 26 -34 48 -22 12 -42 30 -45 40 -5 15 -5 15 6 1 7 -8 21 -18 30 -22z
m345 -5 c-26 -3 -28 -6 -25 -40 3 -32 6 -37 26 -35 13 2 21 -1 17 -7 -9 -14
-41 -12 -53 3 -28 33 10 104 46 89 13 -5 10 -8 -11 -10z m115 1 c34 -30 13
-93 -31 -93 -44 0 -57 68 -19 94 28 20 27 20 50 -1z m121 3 c12 -9 14 -16 8
-21 -6 -3 -18 0 -26 9 -27 27 -14 36 18 12z m9307 1 c0 -8 -10 -13 -22 -13
-19 1 -24 -5 -26 -31 -3 -28 0 -32 25 -35 24 -4 26 -5 9 -13 -11 -5 -25 -4
-35 2 -20 12 -27 69 -10 89 15 18 59 19 59 1z m98 1 c7 -7 12 -26 12 -43 0
-38 -16 -55 -52 -55 -21 0 -31 6 -38 26 -14 35 -13 41 10 64 23 23 50 26 68 8z
m68 -15 c-3 -8 -6 -30 -6 -49 0 -24 -5 -34 -15 -34 -13 0 -15 10 -11 53 5 63
3 58 22 50 8 -3 13 -12 10 -20z m-10142 1 c18 -17 22 -39 6 -29 -5 3 -10 2
-10 -4 0 -5 5 -11 11 -13 12 -4 1 -38 -13 -38 -6 0 -5 6 2 15 11 14 7 19 -13
16 -4 -1 -3 8 3 19 9 16 8 25 -1 36 -16 19 -4 18 15 -2z m603 -16 c-3 -7 -5
-2 -5 12 0 14 2 19 5 13 2 -7 2 -19 0 -25z m73 -33 c0 -14 -4 -25 -9 -25 -5 0
-8 8 -6 18 2 9 4 20 4 25 2 19 11 4 11 -18z m-616 -10 c3 -8 1 -15 -4 -15 -6
0 -10 7 -10 15 0 8 2 15 4 15 2 0 6 -7 10 -15z m10136 -17 c0 -5 -4 -8 -10 -8
-5 0 -10 10 -10 23 0 18 2 19 10 7 5 -8 10 -18 10 -22z m-10236 11 c-8 -13
-43 -16 -47 -4 -4 8 4 12 23 11 15 -1 26 -4 24 -7z m406 2 c0 -6 -4 -13 -10
-16 -5 -3 -10 1 -10 9 0 9 5 16 10 16 6 0 10 -4 10 -9z m9520 -6 c0 -8 -7 -15
-15 -15 -8 0 -15 7 -15 15 0 8 7 15 15 15 8 0 15 -7 15 -15z m-1370 -209 c0
-3 -4 -8 -10 -11 -5 -3 -10 -1 -10 4 0 6 5 11 10 11 6 0 10 -2 10 -4z m1490
-901 c498 -498 898 -903 890 -899 -16 8 -1808 1804 -1800 1804 3 0 412 -407
910 -905z m-1597 796 c-37 -37 -70 -66 -72 -64 -6 5 121 133 132 133 4 0 -23
-31 -60 -69z m-8683 -36 c19 -19 32 -35 29 -35 -3 0 -20 16 -39 35 -19 19 -32
35 -29 35 3 0 20 -16 39 -35z m250 -250 c113 -113 203 -205 200 -205 -3 0 -97
92 -210 205 -113 113 -203 205 -200 205 3 0 97 -92 210 -205z m8339 192 c-2
-1 -13 -9 -24 -17 -19 -14 -19 -14 -6 3 7 9 18 17 24 17 6 0 8 -1 6 -3z m3331
-1432 c-96 -96 -176 -173 -178 -170 -2 2 74 83 169 179 95 96 175 173 178 170
2 -2 -74 -83 -169 -179z m-1793 -157 c48 -47 53 -57 53 -95 0 -42 1 -43 33
-44 55 -1 69 -7 111 -46 56 -53 56 -51 56 -115 0 -56 -1 -58 -52 -108 -47 -44
-58 -50 -97 -50 -39 0 -49 5 -96 53 l-53 53 -1 79 -1 79 50 -49 c41 -41 50
-55 50 -85 l0 -35 55 -2 55 -3 0 65 0 65 -52 0 c-50 0 -55 3 -105 52 -48 48
-53 56 -53 97 0 41 -5 50 -47 93 l-47 48 44 0 c40 0 50 -5 97 -52z m431 -182
c3 -43 5 -46 25 -40 67 21 97 -6 97 -89 0 -57 -22 -87 -64 -87 -17 0 -37 5
-44 12 -9 9 -12 9 -12 0 0 -7 -9 -12 -20 -12 -19 0 -20 7 -20 128 0 71 3 132
7 136 16 15 28 -4 31 -48z m508 -24 c0 -39 3 -74 6 -77 3 -4 16 10 28 29 15
26 29 36 47 36 l25 0 -31 -38 -30 -38 30 -45 c35 -53 36 -59 6 -59 -16 0 -29
12 -47 45 -14 25 -28 45 -32 45 -3 0 -4 -21 -2 -46 5 -43 4 -45 -18 -42 -22 3
-23 7 -22 83 2 179 3 187 22 183 14 -3 17 -15 18 -76z m-235 -24 c9 -14 20
-133 14 -149 -3 -9 -26 -15 -65 -17 -56 -2 -61 0 -72 23 -15 33 6 74 39 77 13
0 29 1 36 2 17 1 26 17 20 34 -5 11 -17 13 -50 9 -36 -4 -43 -2 -41 11 6 29
102 37 119 10z m155 12 c8 0 14 -8 14 -19 0 -15 -7 -18 -37 -17 -36 1 -38 -1
-41 -33 -5 -54 5 -81 31 -81 13 0 28 5 35 12 9 9 12 7 12 -10 0 -15 -8 -24
-25 -28 -44 -11 -75 4 -92 44 -13 32 -14 42 -2 77 14 40 52 69 77 60 8 -3 20
-5 28 -5z m354 -16 c0 -8 -4 -14 -10 -14 -5 0 -10 -10 -10 -23 0 -38 -22 -59
-63 -59 -25 0 -37 -5 -37 -14 0 -9 11 -14 29 -14 54 0 81 -16 81 -49 0 -20 -8
-35 -22 -45 -26 -18 -80 -21 -109 -6 -20 11 -26 54 -9 65 7 4 6 13 -1 27 -7
13 -7 24 -1 30 5 5 7 28 5 52 -7 60 16 75 104 67 28 -2 43 -8 43 -17z m118 -2
c2 -16 -1 -20 -11 -16 -28 10 -47 -24 -47 -87 0 -52 -2 -59 -20 -59 -19 0 -20
7 -20 90 0 71 3 90 14 90 8 0 16 -6 18 -12 3 -9 10 -8 22 5 22 22 40 17 44
-11z m155 -3 c11 -14 17 -38 17 -70 0 -62 -26 -89 -85 -89 -63 0 -93 44 -79
115 13 69 103 96 147 44z m365 15 c20 -13 22 -24 22 -95 0 -72 -2 -79 -20 -79
-18 0 -20 7 -20 70 0 56 -3 72 -16 77 -34 13 -49 -11 -52 -81 -3 -58 -5 -66
-22 -66 -18 0 -20 7 -20 90 0 82 2 90 19 90 11 0 22 -6 24 -12 4 -9 8 -10 14
-2 7 10 28 21 43 23 3 1 16 -6 28 -15z m-276 -59 c4 -72 18 -96 46 -79 13 8
18 28 20 78 3 63 4 66 27 66 25 0 25 -1 25 -90 0 -82 -2 -90 -19 -90 -11 0
-21 6 -24 13 -4 10 -7 10 -18 0 -7 -7 -25 -13 -40 -13 -42 0 -59 32 -59 112 0
60 2 68 19 68 16 0 19 -9 23 -65z m-722 -500 c-112 -112 -206 -203 -207 -201
-5 4 396 406 405 406 4 0 -85 -92 -198 -205z m875 95 c55 -55 97 -100 95 -100
-3 0 -50 45 -105 100 -55 55 -97 100 -95 100 3 0 50 -45 105 -100z m-1240
-460 c-82 -82 -152 -150 -155 -150 -2 0 63 68 145 150 82 83 152 150 155 150
2 0 -63 -67 -145 -150z m-165 -163 c0 -2 -12 -14 -27 -28 l-28 -24 24 28 c23
25 31 32 31 24z m-90 -90 c0 -2 -12 -14 -27 -28 l-28 -24 24 28 c23 25 31 32
31 24z m-80 -80 c0 -2 -19 -21 -42 -42 l-43 -40 40 43 c36 39 45 47 45 39z"/>
<path d="M13223 14963 c9 -2 25 -2 35 0 9 3 1 5 -18 5 -19 0 -27 -2 -17 -5z"/>
<path d="M13080 14805 c0 -8 2 -15 4 -15 2 0 6 7 10 15 3 8 1 15 -4 15 -6 0
-10 -7 -10 -15z"/>
<path d="M13478 14959 c-23 -13 -24 -72 -2 -93 32 -33 64 -11 64 44 0 53 -24
72 -62 49z"/>
<path d="M14980 14951 c-22 -42 -4 -101 30 -101 23 0 40 28 40 67 0 50 -48 73
-70 34z"/>
<path d="M13647 14893 c-13 -12 -7 -41 9 -47 22 -9 54 11 54 34 0 15 -7 20
-28 20 -16 0 -32 -3 -35 -7z"/>
<path d="M14131 14966 c-19 -23 -4 -58 22 -54 17 2 22 10 22 33 0 34 -24 45
-44 21z"/>
<path d="M14117 14811 c-6 -26 0 -31 39 -31 38 0 53 25 24 40 -30 16 -57 12
-63 -9z"/>
<path d="M14410 14944 c-15 -38 1 -88 29 -92 33 -5 51 16 51 57 0 43 -14 61
-47 61 -16 0 -27 -8 -33 -26z"/>
<path d="M15386 12708 c3 -4 12 -8 20 -8 8 0 14 4 14 8 0 4 -9 8 -19 8 -11 0
-17 -4 -15 -8z"/>
<path d="M15610 12601 c0 -5 7 -11 15 -15 8 -3 15 -1 15 3 0 5 -7 11 -15 15
-8 3 -15 1 -15 -3z"/>
<path d="M15856 12574 c-32 -31 -11 -104 29 -104 27 0 45 63 29 104 -8 20 -38
21 -58 0z"/>
<path d="M17360 12571 c-14 -27 -13 -64 4 -86 13 -18 17 -18 40 -6 20 11 26
22 26 45 -1 57 -47 88 -70 47z"/>
<path d="M16024 12506 c-11 -28 4 -48 28 -40 45 14 48 47 5 52 -18 2 -29 -2
-33 -12z"/>
<path d="M16505 12579 c-9 -26 15 -52 38 -43 21 8 22 50 1 58 -25 10 -32 7
-39 -15z"/>
<path d="M16502 12438 c-17 -21 2 -40 34 -36 21 2 29 8 29 23 0 24 -46 33 -63
13z"/>
<path d="M16792 12562 c-15 -43 -4 -81 24 -88 38 -10 55 12 52 65 -3 43 -5 46
-34 49 -27 3 -33 -1 -42 -26z"/>
<path d="M8426 12521 c-6 -9 -1 -46 9 -61 19 -31 58 12 47 52 -4 19 -46 25
-56 9z"/>
<path d="M17957 12524 c-4 -4 -7 -20 -7 -36 0 -23 4 -28 26 -28 23 0 25 3 22
32 -3 31 -25 48 -41 32z"/>
<path d="M18238 10196 c-41 -30 -2 -126 40 -100 32 20 27 114 -6 114 -9 0 -25
-7 -34 -14z"/>
<path d="M18407 10133 c-13 -12 -7 -41 9 -47 22 -9 54 11 54 34 0 15 -7 20
-28 20 -16 0 -32 -3 -35 -7z"/>
<path d="M18890 10205 c-17 -21 -2 -50 26 -50 14 0 19 7 19 30 0 34 -24 45
-45 20z"/>
<path d="M18887 10064 c-4 -4 -7 -16 -7 -26 0 -14 8 -18 36 -18 31 0 35 3 32
23 -2 15 -11 23 -28 25 -14 2 -29 0 -33 -4z"/>
<path d="M19170 10180 c-17 -40 2 -90 34 -90 31 0 46 19 46 56 0 49 -9 64 -40
64 -21 0 -30 -7 -40 -30z"/>
</g>
</svg>
