<svg width="112" height="52" viewBox="0 0 112 52" fill="none" xmlns="http://www.w3.org/2000/svg">
<g filter="url(#filter0_d_143_6)">
<rect x="4" width="104" height="44" rx="7" fill="#CE9503" shape-rendering="crispEdges"/>
<g filter="url(#filter1_d_143_6)">
<path d="M38.9033 24.2588H40.8994C40.945 24.6598 41.1546 24.9788 41.5283 25.2158C41.902 25.4528 42.3805 25.5713 42.9639 25.5713C43.5016 25.5713 43.9414 25.4551 44.2832 25.2227C44.625 24.9857 44.7959 24.6803 44.7959 24.3066C44.7959 23.9922 44.6637 23.737 44.3994 23.541C44.1351 23.3451 43.6999 23.1833 43.0938 23.0557L41.8086 22.7822C40.0221 22.4085 39.1289 21.4697 39.1289 19.9658C39.1289 19.0361 39.473 18.291 40.1611 17.7305C40.8493 17.1654 41.763 16.8828 42.9023 16.8828C43.987 16.8828 44.8779 17.1585 45.5752 17.71C46.277 18.2614 46.6439 18.9769 46.6758 19.8564H44.7344C44.6842 19.4645 44.4928 19.1501 44.1602 18.9131C43.8275 18.6761 43.4128 18.5576 42.916 18.5576C42.3965 18.5576 41.9795 18.6693 41.665 18.8926C41.3551 19.1159 41.2002 19.4144 41.2002 19.7881C41.2002 20.0934 41.3255 20.3395 41.5762 20.5264C41.8314 20.7132 42.2484 20.8682 42.8271 20.9912L44.0166 21.2441C45.0055 21.4538 45.7256 21.7819 46.1768 22.2285C46.6279 22.6751 46.8535 23.2812 46.8535 24.0469C46.8535 25.0404 46.4958 25.8242 45.7803 26.3984C45.0693 26.9681 44.0941 27.2529 42.8545 27.2529C41.6787 27.2529 40.7354 26.984 40.0244 26.4463C39.3135 25.9085 38.9398 25.1794 38.9033 24.2588ZM49.1777 17.6689H51.167V19.5352H52.7324V21.1006H51.167V24.4912C51.167 24.8193 51.2445 25.0609 51.3994 25.2158C51.5589 25.3708 51.8073 25.4482 52.1445 25.4482C52.3678 25.4482 52.5638 25.4391 52.7324 25.4209V26.9385C52.4271 26.9977 52.0944 27.0273 51.7344 27.0273C50.8184 27.0273 50.1621 26.8678 49.7656 26.5488C49.3737 26.2298 49.1777 25.7012 49.1777 24.9629V21.1006H48.002V19.5352H49.1777V17.6689ZM57.1143 25.6191C57.5745 25.6191 57.9596 25.4893 58.2695 25.2295C58.5794 24.9697 58.7344 24.6484 58.7344 24.2656V23.7119L57.21 23.8076C56.3623 23.8669 55.9385 24.1699 55.9385 24.7168C55.9385 24.9948 56.0456 25.2158 56.2598 25.3799C56.4785 25.5394 56.7633 25.6191 57.1143 25.6191ZM56.458 27.1162C55.7288 27.1162 55.1341 26.9089 54.6738 26.4941C54.2181 26.0794 53.9902 25.5303 53.9902 24.8467C53.9902 24.1676 54.2409 23.6344 54.7422 23.2471C55.248 22.8551 55.9704 22.6318 56.9092 22.5771L58.7344 22.4678V21.8525C58.7344 21.5381 58.625 21.2965 58.4062 21.1279C58.1875 20.9548 57.873 20.8682 57.4629 20.8682C56.7246 20.8682 56.2712 21.1006 56.1025 21.5654H54.2705C54.3343 20.8682 54.6624 20.3167 55.2549 19.9111C55.8519 19.501 56.6243 19.2959 57.5723 19.2959C58.5658 19.2959 59.3337 19.5192 59.876 19.9658C60.4229 20.4124 60.6963 21.0413 60.6963 21.8525V27H58.7686V26.0156H58.6455C58.4495 26.362 58.1579 26.6331 57.7705 26.8291C57.3831 27.0205 56.9456 27.1162 56.458 27.1162ZM62.6514 27V19.46H64.5791V20.6631H64.7021C64.8024 20.2803 65.0303 19.9635 65.3857 19.7129C65.7458 19.4622 66.1628 19.3369 66.6367 19.3369C66.9785 19.3369 67.2383 19.3688 67.416 19.4326V21.2441C67.2064 21.1621 66.8919 21.1211 66.4727 21.1211C65.9212 21.1211 65.4769 21.2738 65.1396 21.5791C64.807 21.8844 64.6406 22.2992 64.6406 22.8232V27H62.6514ZM69.6309 17.6689H71.6201V19.5352H73.1855V21.1006H71.6201V24.4912C71.6201 24.8193 71.6976 25.0609 71.8525 25.2158C72.012 25.3708 72.2604 25.4482 72.5977 25.4482C72.821 25.4482 73.0169 25.4391 73.1855 25.4209V26.9385C72.8802 26.9977 72.5475 27.0273 72.1875 27.0273C71.2715 27.0273 70.6152 26.8678 70.2188 26.5488C69.8268 26.2298 69.6309 25.7012 69.6309 24.9629V21.1006H68.4551V19.5352H69.6309V17.6689Z" fill="white"/>
</g>
</g>
<defs>
<filter id="filter0_d_143_6" x="0" y="0" width="112" height="52" filterUnits="userSpaceOnUse" color-interpolation-filters="sRGB">
<feFlood flood-opacity="0" result="BackgroundImageFix"/>
<feColorMatrix in="SourceAlpha" type="matrix" values="0 0 0 0 0 0 0 0 0 0 0 0 0 0 0 0 0 0 127 0" result="hardAlpha"/>
<feOffset dy="4"/>
<feGaussianBlur stdDeviation="2"/>
<feComposite in2="hardAlpha" operator="out"/>
<feColorMatrix type="matrix" values="0 0 0 0 0 0 0 0 0 0 0 0 0 0 0 0 0 0 0.25 0"/>
<feBlend mode="normal" in2="BackgroundImageFix" result="effect1_dropShadow_143_6"/>
<feBlend mode="normal" in="SourceGraphic" in2="effect1_dropShadow_143_6" result="shape"/>
</filter>
<filter id="filter1_d_143_6" x="34.9033" y="16.8828" width="42.2822" height="18.3701" filterUnits="userSpaceOnUse" color-interpolation-filters="sRGB">
<feFlood flood-opacity="0" result="BackgroundImageFix"/>
<feColorMatrix in="SourceAlpha" type="matrix" values="0 0 0 0 0 0 0 0 0 0 0 0 0 0 0 0 0 0 127 0" result="hardAlpha"/>
<feOffset dy="4"/>
<feGaussianBlur stdDeviation="2"/>
<feComposite in2="hardAlpha" operator="out"/>
<feColorMatrix type="matrix" values="0 0 0 0 0 0 0 0 0 0 0 0 0 0 0 0 0 0 0.25 0"/>
<feBlend mode="normal" in2="BackgroundImageFix" result="effect1_dropShadow_143_6"/>
<feBlend mode="normal" in="SourceGraphic" in2="effect1_dropShadow_143_6" result="shape"/>
</filter>
</defs>
</svg>
