<svg width="20" height="20" viewBox="0 0 20 20" fill="none" xmlns="http://www.w3.org/2000/svg">
<circle cx="10" cy="10" r="10" fill="white"/>
<path fill-rule="evenodd" clip-rule="evenodd" d="M10.0139 8.5L15.2248 4.92249L10.0139 1V8.5ZM10 2.68998C8.41775 2.68998 6.87103 3.13894 5.55544 3.98008C4.23985 4.82122 3.21447 6.01677 2.60897 7.41554C2.00347 8.81431 1.84504 10.3535 2.15372 11.8384C2.4624 13.3233 3.22433 14.6873 4.34315 15.7579C5.46197 16.8285 6.88743 17.5575 8.43928 17.8529C9.99113 18.1483 11.5997 17.9967 13.0615 17.4173C14.5233 16.8379 15.7727 15.8567 16.6518 14.5979C17.5308 13.339 18 11.859 18 10.345H10L13.4783 10.345C13.4783 11.0149 13.2743 11.6698 12.8921 12.2268C12.5099 12.7838 11.9666 13.218 11.3311 13.4743C10.6955 13.7307 9.99615 13.7978 9.32143 13.6671C8.64672 13.5364 8.02695 13.2138 7.54051 12.7401C7.05407 12.2664 6.72279 11.6628 6.58858 11.0058C6.45437 10.3488 6.52326 9.6677 6.78652 9.04878C7.04978 8.42986 7.4956 7.90085 8.06759 7.52866C8.63958 7.15648 9.31208 6.95782 10 6.95782L10 2.68998Z" fill="#4B5782"/>
</svg>
