<svg width="297" height="625" fill="none" xmlns="http://www.w3.org/2000/svg"><path d="M315 625c-101.76-11.088-297-26.766-297-76 0-38 163-114 303-114l-6 190z" fill="#E8DBC9"/><g filter="url(#filter0_f)"><path d="M255.693 452.306c-6.89 14.358-8.997 41.292-6.935 67.692 1.137 14.553 9.198 37.47 12.48 50.296 8.595-15.215 8.094-35.932 7.409-45.963-2.279-33.368-8.159-56.852-12.954-72.025z" fill="#8FAD4F"/><path d="M315.147 464.417c-13.035 9.15-28.055 31.606-39.177 55.638-6.131 13.248-10.317 37.178-13.732 49.968 14.942-9.061 24.644-27.373 28.956-36.456 14.343-30.213 20.709-53.57 23.953-69.15z" fill="#A6C565"/><path d="M231.778 483.134c-3.546 15.525.35 42.259 8.195 67.551 4.325 13.942 17.25 34.512 23.285 46.295 5.021-16.738-.046-36.832-2.93-46.464-9.596-32.04-20.52-53.644-28.55-67.382z" fill="#A2C558"/></g><g filter="url(#filter1_f)"><path fill-rule="evenodd" clip-rule="evenodd" d="M424.006 284.807l-15.52-1.969 14.569 8.366c-12.739 78.109-62.387 128.734-87.259 145.048 1.693-10.6 3.176-44.453 2.229-81.357l16.06-8.183-16.336-.751c-.771-21.255-2.391-42.976-5.271-61.412l26.763-6.041-28.373-4.959c-3.305-25.532-3.364-50.524 1.682-75.893l25.045-5.653-22.88-3.999c5.923-23.699 16.466-47.824 33.123-73.113 16.554 11.976 44.393 45.075 54.481 97.577l-20.822-2.642 22.53 12.937c2.157 15.39 2.777 32.293 1.223 50.669a232.316 232.316 0 01-1.244 11.375z" fill="#68A42D"/><path d="M368.793 118.39c8.266 26.428 21.438 81.856 17.786 156.118-3.209 65.26-42.272 142.22-48.633 160.254" stroke="#8BC94F"/><path d="M236.292 224.359c56.287-27.037 109.22-83.968 131.546-109.468-16.31-1.516-58.811-17.046-130.981-.358-64.036 14.808-118.076 82.022-136.089 120.938 19.791 7.837 79.236 15.924 135.524-11.112z" fill="#68A42D"/><path d="M380.655 315.088l14.349 18.951m-9.594-46.726l18.778 13.68m-16.748-50.34l23.781 18.784m-24.844-53.547l27.141 16.212m-29.54-47.601l17.555 10.855m-23.427-33.473l-15.03 18.243m21.925 27.414l-23.507 21.911m24.964 9.886l-22.832 22.178m20.675 16.773l-28.102 17.75m24.963 9.885l-22.043 16.247m14.349 18.95l-13.707 10.963m10.12 4.007l5.565 11.57m-14.917 12.044l-11.696 7.856m5.818 6.987l2.065 12.525" stroke="#8BC94F"/><path fill-rule="evenodd" clip-rule="evenodd" d="M349.522 204.488l-17.12-9.972 11.172 23.758c-9.85 21.296-23.226 43.392-41.163 64.269a272.472 272.472 0 01-8.037 8.951l-11.563-19.055 3.134 27.643c-17.987 17.52-36.53 30.601-53.988 40.215l-12.424-12.526 5.516 16.182c-28.636 14.548-53.635 19.777-67.351 20.21 6.146-21.492 19.599-53.965 34.659-83.862l18.257 1.01c-3.694-2.175-9.589-5.564-14.558-8.238 12.06-23.191 24.833-44.093 35.519-56.046 4.019-4.494 8.157-8.8 12.384-12.932l19.9 3.863-12.136-11.176c25.928-23.552 54.404-41.213 78.908-56.41 14.53-9.011 27.663-17.157 38.042-25.151.356 17.587-3.953 51.38-19.151 89.267z" fill="#70AF31"/><path d="M367.035 116.915c-23.639 35.386-75.51 111.053-93.877 130.629-18.367 19.575-80.882 82.702-109.843 111.819M342.234 153.921l-.2 20.214m-13.213-2.111l-19.947-.875m9.626 17.081l3.722 24.108m-17.542-6.947l-30.755-9.057m15.331 30.266l6.434 29.085m-19.312-12.331l-36.266-4.996m21.504 22.565l-.033 29.646m-16.22-14.228l-27.635-3.139m9.373 21.663l2.205 14.141m-18.317 2.893l-14.282.588m-2.912 15.237l2.866 10.501M364.07 116.52c-4.453 2.596-10.853 6.181-18.852 10.485m-237.182 105.88a57712.708 57712.708 0 0174.879-31.411m162.303-74.469l-25.329-5.347m25.329 5.347a1189.322 1189.322 0 01-24.651 12.873m0 0l-6.602 22.361m6.602-22.361a1369.626 1369.626 0 01-18.324 9.134m0 0l-23.121-9.157m23.121 9.157a1404.475 1404.475 0 01-17.611 8.463m0 0l-10.212 25.787m10.212-25.787a1360.588 1360.588 0 01-20.212 9.339m0 0a1254.582 1254.582 0 01-32.859 14.305l-8.418 3.52m41.277-17.825l-30.689-20.739m10.193 29.793l-9.583 29.766m-11.198-20.995l-29.012-11.489m29.012 11.489c-7 2.927-13.787 5.766-20.337 8.507m0 0l-3.976 31.206m3.976-31.206l-19.891 8.328m0 0l-32.385-12.825m7.298 24.93l-1.703 14.155" stroke="#8BC94F"/><circle cx="297.5" cy="173.5" r="20.5" fill="#98785B"/></g><ellipse cx="140.5" cy="484.5" rx="6.5" ry="3.5" fill="#E3C69E"/><ellipse cx="102" cy="533.154" rx="4" ry="2.154" fill="#E3C69E"/><ellipse cx="272" cy="450.154" rx="4" ry="2.154" fill="#E3C69E"/><ellipse cx="144" cy="500.5" rx="11" ry="3.5" fill="#E3C69E"/><path fill-rule="evenodd" clip-rule="evenodd" d="M180.583 486.609c-.04 1.591-1.053 2.976-2.525 3.581-4.109 1.688-8.826 2.592-13.822 2.466-4.365-.11-8.478-.994-12.127-2.479-1.785-.725-2.993-2.434-2.944-4.36.245-9.728 7.477-17.436 16.152-17.218 8.676.219 15.511 8.282 15.266 18.01z" fill="#916C4B"/><path fill-rule="evenodd" clip-rule="evenodd" d="M133.733 472.828c.995-1.342 2.701-1.921 4.33-1.552 4.55 1.03 9.148 3.102 13.364 6.227 3.684 2.73 6.683 5.972 8.923 9.45 1.095 1.701 1.101 3.898-.104 5.523-6.083 8.209-16.95 10.465-24.271 5.04-7.322-5.426-8.325-16.479-2.242-24.688z" fill="#99795C"/><ellipse cx="146.884" cy="481.952" rx="12" ry="4" transform="rotate(36.542 146.884 481.952)" fill="#FAF4EB"/><path d="M48.289 1.373c-8.684.583-12.45 10.56-13.247 15.477-5.887-.728-11.186.728-11.039 7.283.147 6.555 6.685 7.83 12.511 5.827-.49 2.55 0 8.194 7.543 9.286 8.156 1.181 10.242-6.737 9.567-9.286 1.411 5.098 4.784 12.017 13.616 10.925 8.547-1.057 9.26-9.347 8.279-13.11 4.231 3.277 12.603 1.617 17.018-1.296 4.453-2.938 4.778-12.08 0-15.09-4.047-2.55-9.352-2.186-10.579-1.458-.245-2.853-2.17-8.813-7.911-9.833-5.74-1.02-10.12 6.13-11.591 9.833-1.104-3.095-5.483-9.14-14.167-8.558z" fill="#FFE4D9"/><path d="M192 443.5c-8.5 2-76.69 17.148-114 37.5C34 505 7.5 530.5.5 538.5M272.5 422c-15 0-55 2.1-95 10.5S99.167 457.667 85 465" stroke="#C2E4FB"/><defs><filter id="filter0_f" x="223.459" y="445.306" width="98.688" height="158.674" filterUnits="userSpaceOnUse" color-interpolation-filters="sRGB"><feFlood flood-opacity="0" result="BackgroundImageFix"/><feBlend in="SourceGraphic" in2="BackgroundImageFix" result="shape"/><feGaussianBlur stdDeviation="3.5" result="effect1_foregroundBlur"/></filter><filter id="filter1_f" x="94.768" y="100.867" width="397.116" height="341.385" filterUnits="userSpaceOnUse" color-interpolation-filters="sRGB"><feFlood flood-opacity="0" result="BackgroundImageFix"/><feBlend in="SourceGraphic" in2="BackgroundImageFix" result="shape"/><feGaussianBlur stdDeviation="3" result="effect1_foregroundBlur"/></filter></defs></svg>