<svg width="223" height="47" viewBox="0 0 223 47" fill="none" xmlns="http://www.w3.org/2000/svg">
<g filter="url(#filter0_d_9_4)">
<rect x="4" width="215" height="39" rx="10" fill="#4B5782"/>
<path d="M46.5781 25H44.2266V15.75H39.2656V25H36.8984V13.7266H46.5781V25ZM56.1797 23.9922C55.4297 24.7891 54.3932 25.1875 53.0703 25.1875C51.7474 25.1875 50.7083 24.7891 49.9531 23.9922C49.2031 23.1953 48.8281 22.0938 48.8281 20.6875C48.8281 19.2917 49.2057 18.1953 49.9609 17.3984C50.7214 16.5964 51.7578 16.1953 53.0703 16.1953C54.3828 16.1953 55.4167 16.5964 56.1719 17.3984C56.9323 18.1953 57.3125 19.2917 57.3125 20.6875C57.3125 22.0938 56.9349 23.1953 56.1797 23.9922ZM53.0703 23.3281C53.6745 23.3281 54.1432 23.099 54.4766 22.6406C54.8099 22.1771 54.9766 21.526 54.9766 20.6875C54.9766 19.8594 54.8073 19.2135 54.4688 18.75C54.1354 18.2865 53.6693 18.0547 53.0703 18.0547C52.4661 18.0547 51.9974 18.2865 51.6641 18.75C51.3307 19.2135 51.1641 19.8594 51.1641 20.6875C51.1641 21.526 51.3281 22.1771 51.6562 22.6406C51.9896 23.099 52.4609 23.3281 53.0703 23.3281ZM66.7891 25H64.5156V21.5547H64.375C63.8281 22.0391 63.1484 22.2812 62.3359 22.2812C61.3411 22.2812 60.5469 21.9844 59.9531 21.3906C59.3646 20.7969 59.0703 20.013 59.0703 19.0391V16.3828H61.3438V18.7891C61.3438 19.263 61.4818 19.638 61.7578 19.9141C62.0339 20.1849 62.4193 20.3203 62.9141 20.3203C63.5651 20.3203 64.099 20.1276 64.5156 19.7422V16.3828H66.7891V25ZM72.3281 23.4219C72.8542 23.4219 73.2943 23.2734 73.6484 22.9766C74.0026 22.6797 74.1797 22.3125 74.1797 21.875V21.2422L72.4375 21.3516C71.4688 21.4193 70.9844 21.7656 70.9844 22.3906C70.9844 22.7083 71.1068 22.9609 71.3516 23.1484C71.6016 23.3307 71.9271 23.4219 72.3281 23.4219ZM71.5781 25.1328C70.7448 25.1328 70.0651 24.8958 69.5391 24.4219C69.0182 23.9479 68.7578 23.3203 68.7578 22.5391C68.7578 21.763 69.0443 21.1536 69.6172 20.7109C70.1953 20.263 71.0208 20.0078 72.0938 19.9453L74.1797 19.8203V19.1172C74.1797 18.7578 74.0547 18.4818 73.8047 18.2891C73.5547 18.0911 73.1953 17.9922 72.7266 17.9922C71.8828 17.9922 71.3646 18.2578 71.1719 18.7891H69.0781C69.151 17.9922 69.526 17.362 70.2031 16.8984C70.8854 16.4297 71.7682 16.1953 72.8516 16.1953C73.987 16.1953 74.8646 16.4505 75.4844 16.9609C76.1094 17.4714 76.4219 18.1901 76.4219 19.1172V25H74.2188V23.875H74.0781C73.8542 24.2708 73.5208 24.5807 73.0781 24.8047C72.6354 25.0234 72.1354 25.1328 71.5781 25.1328ZM85.5703 16.3828V18.1719H82.9922V25H80.7188V18.1719H78.1406V16.3828H85.5703ZM89.5781 25H87.3438V16.3828H89.5781V21.6797H89.7188L93.1562 16.3828H95.3906V25H93.1562V19.6406H93.0156L89.5781 25ZM107.477 23.2109V18.1641H104.852L104.656 20.8594C104.589 21.8177 104.385 22.5547 104.047 23.0703V23.2109H107.477ZM103.102 27.2266H101.023V23.2109H101.688C102.229 22.9089 102.547 22.0729 102.641 20.7031L102.922 16.3828H109.742V23.2109H111.039V27.2266H108.961V25H103.102V27.2266ZM117.602 16.2422C118.695 16.2422 119.555 16.6354 120.18 17.4219C120.805 18.2083 121.117 19.2969 121.117 20.6875C121.117 22.0729 120.807 23.1615 120.188 23.9531C119.568 24.7396 118.719 25.1328 117.641 25.1328C117.026 25.1328 116.492 25.0052 116.039 24.75C115.586 24.4948 115.253 24.138 115.039 23.6797H114.898V27.8594H112.625V16.3828H114.828V17.7969H114.969C115.203 17.3125 115.552 16.9323 116.016 16.6562C116.479 16.3802 117.008 16.2422 117.602 16.2422ZM116.828 23.2344C117.443 23.2344 117.922 23.0104 118.266 22.5625C118.609 22.1094 118.781 21.4844 118.781 20.6875C118.781 19.8958 118.607 19.276 118.258 18.8281C117.914 18.375 117.44 18.1484 116.836 18.1484C116.232 18.1484 115.753 18.3776 115.398 18.8359C115.049 19.2891 114.875 19.9089 114.875 20.6953C114.875 21.4818 115.049 22.1016 115.398 22.5547C115.747 23.0078 116.224 23.2344 116.828 23.2344ZM123.852 28.1328C123.367 28.1328 123.078 28.125 122.984 28.1094V26.2812C123.036 26.2917 123.208 26.2969 123.5 26.2969C123.932 26.2969 124.271 26.2214 124.516 26.0703C124.76 25.9245 124.93 25.6901 125.023 25.3672L125.102 25.0547L122.078 16.3828H124.586L126.398 22.9141H126.539L128.352 16.3828H130.758L127.789 25.1328C127.424 26.237 126.945 27.013 126.352 27.4609C125.763 27.9089 124.93 28.1328 123.852 28.1328ZM135.18 21.4297H134.773V25H132.5V16.3828H134.773V19.7422H135.148L137.75 16.3828H140.336L137.031 20.3125L140.508 25H137.797L135.18 21.4297ZM142.93 28.1328C142.445 28.1328 142.156 28.125 142.062 28.1094V26.2812C142.115 26.2917 142.286 26.2969 142.578 26.2969C143.01 26.2969 143.349 26.2214 143.594 26.0703C143.839 25.9245 144.008 25.6901 144.102 25.3672L144.18 25.0547L141.156 16.3828H143.664L145.477 22.9141H145.617L147.43 16.3828H149.836L146.867 25.1328C146.503 26.237 146.023 27.013 145.43 27.4609C144.841 27.9089 144.008 28.1328 142.93 28.1328ZM155.281 17.8828H153.812V19.8672H155.156C155.599 19.8672 155.932 19.7812 156.156 19.6094C156.385 19.4323 156.5 19.1849 156.5 18.8672C156.5 18.5599 156.396 18.3203 156.188 18.1484C155.979 17.9714 155.677 17.8828 155.281 17.8828ZM155.281 21.2344H153.812V23.5H155.398C155.862 23.5 156.216 23.4036 156.461 23.2109C156.706 23.013 156.828 22.7292 156.828 22.3594C156.828 21.9896 156.695 21.7109 156.43 21.5234C156.164 21.3307 155.781 21.2344 155.281 21.2344ZM151.578 25V16.3828H155.883C156.773 16.3828 157.469 16.5755 157.969 16.9609C158.474 17.3464 158.727 17.8776 158.727 18.5547C158.727 19.0026 158.578 19.401 158.281 19.75C157.99 20.099 157.622 20.3073 157.18 20.375V20.5156C157.753 20.5677 158.216 20.7812 158.57 21.1562C158.93 21.526 159.109 21.9766 159.109 22.5078C159.109 23.263 158.826 23.8672 158.258 24.3203C157.695 24.7734 156.93 25 155.961 25H151.578ZM164.266 23.4219C164.792 23.4219 165.232 23.2734 165.586 22.9766C165.94 22.6797 166.117 22.3125 166.117 21.875V21.2422L164.375 21.3516C163.406 21.4193 162.922 21.7656 162.922 22.3906C162.922 22.7083 163.044 22.9609 163.289 23.1484C163.539 23.3307 163.865 23.4219 164.266 23.4219ZM163.516 25.1328C162.682 25.1328 162.003 24.8958 161.477 24.4219C160.956 23.9479 160.695 23.3203 160.695 22.5391C160.695 21.763 160.982 21.1536 161.555 20.7109C162.133 20.263 162.958 20.0078 164.031 19.9453L166.117 19.8203V19.1172C166.117 18.7578 165.992 18.4818 165.742 18.2891C165.492 18.0911 165.133 17.9922 164.664 17.9922C163.82 17.9922 163.302 18.2578 163.109 18.7891H161.016C161.089 17.9922 161.464 17.362 162.141 16.8984C162.823 16.4297 163.706 16.1953 164.789 16.1953C165.924 16.1953 166.802 16.4505 167.422 16.9609C168.047 17.4714 168.359 18.1901 168.359 19.1172V25H166.156V23.875H166.016C165.792 24.2708 165.458 24.5807 165.016 24.8047C164.573 25.0234 164.073 25.1328 163.516 25.1328ZM177.508 16.3828V18.1719H174.93V25H172.656V18.1719H170.078V16.3828H177.508ZM181.516 25H179.281V16.3828H181.516V21.6797H181.656L185.094 16.3828H187.328V25H185.094V19.6406H184.953L181.516 25Z" fill="white"/>
</g>
<defs>
<filter id="filter0_d_9_4" x="0" y="0" width="223" height="47" filterUnits="userSpaceOnUse" color-interpolation-filters="sRGB">
<feFlood flood-opacity="0" result="BackgroundImageFix"/>
<feColorMatrix in="SourceAlpha" type="matrix" values="0 0 0 0 0 0 0 0 0 0 0 0 0 0 0 0 0 0 127 0" result="hardAlpha"/>
<feOffset dy="4"/>
<feGaussianBlur stdDeviation="2"/>
<feComposite in2="hardAlpha" operator="out"/>
<feColorMatrix type="matrix" values="0 0 0 0 0 0 0 0 0 0 0 0 0 0 0 0 0 0 0.25 0"/>
<feBlend mode="normal" in2="BackgroundImageFix" result="effect1_dropShadow_9_4"/>
<feBlend mode="normal" in="SourceGraphic" in2="effect1_dropShadow_9_4" result="shape"/>
</filter>
</defs>
</svg>
