<svg width="100" height="100" viewBox="0 0 100 100" fill="none" xmlns="http://www.w3.org/2000/svg">
<rect width="100" height="100" rx="10" fill="#66D1E8"/>
<g filter="url(#filter0_d_10_7)">
<path d="M15 25C15 19.4772 19.4772 15 25 15H75C80.5229 15 85 19.4772 85 25V75C85 80.5229 80.5229 85 75 85H25C19.4772 85 15 80.5229 15 75V25Z" fill="#D9D9D9"/>
</g>
<path d="M61.5 73L58.0938 62.25H42.25L38.7812 73H29.3125L44.9688 27.9062H56.0625L71.7188 73H61.5ZM49.9375 37.2812L44.2812 54.9688H56.0938L50.5 37.2812H49.9375Z" fill="black"/>
<defs>
<filter id="filter0_d_10_7" x="10" y="14" width="80" height="80" filterUnits="userSpaceOnUse" color-interpolation-filters="sRGB">
<feFlood flood-opacity="0" result="BackgroundImageFix"/>
<feColorMatrix in="SourceAlpha" type="matrix" values="0 0 0 0 0 0 0 0 0 0 0 0 0 0 0 0 0 0 127 0" result="hardAlpha"/>
<feOffset dy="4"/>
<feGaussianBlur stdDeviation="2.5"/>
<feComposite in2="hardAlpha" operator="out"/>
<feColorMatrix type="matrix" values="0 0 0 0 0 0 0 0 0 0 0 0 0 0 0 0 0 0 0.5 0"/>
<feBlend mode="darken" in2="BackgroundImageFix" result="effect1_dropShadow_10_7"/>
<feBlend mode="normal" in="SourceGraphic" in2="effect1_dropShadow_10_7" result="shape"/>
</filter>
</defs>
</svg>
